<svg width="88" height="88" viewBox="0 0 88 88" fill="none" xmlns="http://www.w3.org/2000/svg">
<path d="M83 44C83 65.5391 65.5391 83 44 83C22.4609 83 4.99999 65.5391 4.99999 44C4.99999 22.4609 22.4609 5.00002 44 5.00002C65.5391 5.00002 83 22.4609 83 44Z" fill="#DDD6FE"/>
<path d="M28.1608 10.8392C33.705 5.29497 36.4772 2.52286 39.6738 1.48422C42.4856 0.570608 45.5144 0.570608 48.3262 1.48422C51.5228 2.52286 54.2949 5.29498 59.8392 10.8392L77.1608 28.1608C82.705 33.7051 85.4772 36.4772 86.5158 39.6738C87.4294 42.4856 87.4294 45.5145 86.5158 48.3263C85.4772 51.5229 82.705 54.295 77.1608 59.8392L59.8392 77.1608C54.2949 82.7051 51.5228 85.4772 48.3262 86.5158C45.5144 87.4294 42.4856 87.4294 39.6738 86.5158C36.4772 85.4772 33.705 82.7051 28.1608 77.1608L10.8392 59.8392C5.29494 54.295 2.52283 51.5229 1.48419 48.3263C0.570578 45.5145 0.570578 42.4856 1.48419 39.6738C2.52283 36.4772 5.29495 33.7051 10.8392 28.1608L28.1608 10.8392Z" fill="#C4B5FD"/>
<path d="M15.816 33.9819C15.816 21.2499 15.816 14.8838 18.4898 11.2037C20.822 7.99375 24.4067 5.92413 28.3526 5.50939C32.8766 5.0339 38.3897 8.21692 49.416 14.583L66.7679 24.6011C77.7942 30.9671 83.3074 34.1501 85.1575 38.3057C86.7714 41.9304 86.7714 46.0696 85.1575 49.6943C83.3074 53.8499 77.7942 57.033 66.7679 63.399L49.416 73.4171C38.3897 79.7831 32.8766 82.9662 28.3526 82.4907C24.4067 82.0759 20.822 80.0063 18.4898 76.7964C15.816 73.1162 15.816 66.7502 15.816 54.0181V33.9819Z" fill="#A78BFA"/>
</svg>
