<svg xmlns="http://www.w3.org/2000/svg" width="87" height="87" viewBox="0 0 87 87" fill="none" ml-update="aware">
<path d="M27.5457 10.1097C33.1271 4.52708 35.9179 1.73578 39.136 0.689951C41.9667 -0.229984 45.0159 -0.229984 47.8466 0.689951C51.0646 1.73578 53.8554 4.52708 59.4369 10.1097L76.8749 27.5512C82.4564 33.1338 85.2471 35.9251 86.2927 39.1438C87.2125 41.9751 87.2125 45.0249 86.2927 47.8562C85.2471 51.0749 82.4564 53.8662 76.8749 59.4488L59.4369 76.8903C53.8554 82.4729 51.0646 85.2642 47.8466 86.31C45.0159 87.23 41.9667 87.23 39.136 86.31C35.9179 85.2642 33.1271 82.4729 27.5457 76.8903L10.1077 59.4488C4.52617 53.8662 1.73543 51.0749 0.689812 47.8562C-0.229937 45.0249 -0.229937 41.9751 0.689812 39.1438C1.73543 35.9251 4.52617 33.1338 10.1077 27.5512L27.5457 10.1097Z" fill="#8B5CF6"/>
<path d="M15.118 33.4126C15.118 20.5924 15.118 14.1823 17.8097 10.4767C20.1575 7.24453 23.7663 5.16059 27.7388 4.74298C32.2931 4.2642 37.8433 7.46924 48.9437 13.8793L66.4122 23.9668C77.5125 30.3769 83.0627 33.5819 84.9254 37.7663C86.55 41.4161 86.55 45.5839 84.9254 49.2337C83.0627 53.4181 77.5125 56.6231 66.4122 63.0332L48.9437 73.1207C37.8433 79.5308 32.2931 82.7358 27.7388 82.257C23.7663 81.8394 20.1575 79.7555 17.8097 76.5233C15.118 72.8177 15.118 66.4076 15.118 53.5874V33.4126Z" fill="#A78BFA"/>
<script xmlns=""/></svg>